<svg width="20" height="19" viewBox="0 0 20 19" fill="none" xmlns="http://www.w3.org/2000/svg">
<path fill-rule="evenodd" clip-rule="evenodd" d="M12.9133 17.7529C12.3486 18.0361 11.7725 18.2458 11.1404 18.3926C10.4966 18.6023 9.86441 18.6023 9.2206 18.6023C6.96229 18.6023 4.90693 17.7529 3.41679 16.2572C1.92622 14.7676 1 12.7119 1 10.4405C1 8.23747 1.92622 6.17568 3.41679 4.68609C4.90736 3.19649 6.96229 2.27345 9.2206 2.27345C9.29962 2.27345 9.43521 2.41509 9.43521 2.55673V10.3668L13.1275 17.3955C13.1275 17.4692 13.1275 17.6108 12.9807 17.7524L12.9133 17.7529ZM10.497 1C12.7665 1 14.8219 1.8494 16.2447 3.339C17.724 4.83423 18.6498 6.88995 18.6498 9.08731C18.6498 9.30258 18.503 9.44422 18.4352 9.44422H10.497C10.3619 9.44422 10.2146 9.30258 10.2146 9.08731V1.20921C10.2146 1.068 10.3614 1 10.497 1ZM15.8833 3.69591C14.6073 2.41596 12.7665 1.56612 10.7906 1.49292V8.87853H18.0855C18.085 6.81631 17.2383 5.04344 15.8833 3.69591ZM19 10.4409V10.5089C19 12.0041 18.5824 13.4877 17.803 14.7C17.0241 15.9064 15.8833 17.039 14.6073 17.7529C14.4721 17.8209 14.2571 17.7529 14.2571 17.6112L10.5648 10.5825C10.497 10.4409 10.5648 10.2936 10.7116 10.2256C10.7906 10.1576 10.8584 10.1576 10.8584 10.1576H18.7176C18.8644 10.158 19 10.2941 19 10.4409ZM17.3738 14.4172C18.0177 13.2789 18.4352 12.0726 18.4352 10.7246H11.2086L14.6073 17.1135C15.7477 16.4729 16.6622 15.5499 17.3738 14.4172ZM10.994 17.8945C11.5696 17.7529 11.9876 17.5376 12.4846 17.3964L8.93864 10.583C8.93864 10.583 8.93864 10.5093 8.93864 10.4413V2.84045C6.96272 2.91408 5.11074 3.69591 3.76698 5.04344C2.42322 6.39139 1.57646 8.31154 1.57646 10.4409C1.57646 12.5707 2.42322 14.4848 3.76698 15.9064C5.11074 17.2543 7.03051 18.1037 9.22103 18.1037C9.7854 18.1041 10.4292 18.0361 10.994 17.8945Z" fill="#B2B2B2" stroke="#B2B2B2" stroke-width="0.4"/>
</svg>
