<?xml version="1.0" encoding="UTF-8"?>
<svg version="1.1" xmlns="http://www.w3.org/2000/svg" width="575" height="530">
<path d="M0 0 C189.75 0 379.5 0 575 0 C575 174.9 575 349.8 575 530 C385.25 530 195.5 530 0 530 C0 355.1 0 180.2 0 0 Z " fill="#FEFEFE" transform="translate(0,0)"/>
<path d="M0 0 C1.60695801 -0.00693349 3.21392464 -0.01189062 4.82089233 -0.01600647 C5.71577047 -0.01897767 6.61064861 -0.02194887 7.53264427 -0.02501011 C42.80771588 0.33255219 82.91003312 18.56721068 111 39 C111.96679688 39.69480469 112.93359375 40.38960937 113.9296875 41.10546875 C133.25793138 55.28788147 151.72677864 71.88139252 165.82177734 91.37744141 C167.01016421 93.01399738 168.23017469 94.62261288 169.45703125 96.23046875 C186.58006186 119.00723481 197.73809552 144.8991648 206 172 C206.33040283 173.06516846 206.33040283 173.06516846 206.66748047 174.15185547 C218.73724155 213.92604705 216.98318549 260.36204853 205 300 C204.75411133 300.83080078 204.50822266 301.66160156 204.25488281 302.51757812 C195.45121261 331.83368946 181.22025004 358.22792723 162 382 C161.13418992 383.08886943 160.26951724 384.17864472 159.40625 385.26953125 C157.6160297 387.5230656 155.8158992 389.76715718 154 392 C150.3010988 390.32705514 147.09846937 388.05003683 143.82440186 385.67990112 C143.20842475 385.23530855 142.59244764 384.79071598 141.95780456 384.3326509 C118.56354574 367.35717269 96.35791418 349.06377694 74.75 329.875 C73.86073035 329.08845756 72.9714607 328.30191511 72.05524349 327.49153805 C26.62345285 287.17990339 -5.58227935 246.9629826 -9.51411438 184.8836174 C-10.95726138 160.09573102 -10.55532816 135.41239315 -9.375 110.625 C-9.31080956 109.24102481 -9.24669798 107.85704595 -9.18266487 106.47306347 C-7.51532528 70.84553674 -4.45397392 35.38940029 0 0 Z " fill="#2A8147" transform="translate(311,27)"/>
<path d="M0 0 C30.22372142 -0.64138728 60.44708922 -1.13560288 90.67609791 -1.42982922 C94.26015065 -1.46484104 97.84418996 -1.50108284 101.42822266 -1.53808594 C102.14161612 -1.54543063 102.85500959 -1.55277532 103.59002104 -1.56034258 C115.08040778 -1.68156177 126.56679588 -1.9019525 138.05482504 -2.16027829 C149.87915919 -2.42391051 161.70142862 -2.57800897 173.52857995 -2.63447785 C180.15805576 -2.66916714 186.78030296 -2.75472966 193.407341 -2.96044159 C238.52547531 -4.3075632 238.52547531 -4.3075632 252.46986222 7.94931865 C257.8268216 13.07027999 262.44406558 18.74998919 266.72117615 24.78956604 C271.69157021 31.79191591 277.67198317 37.81557262 283.75195312 43.84960938 C284.86315773 44.95862358 284.86315773 44.95862358 285.99681091 46.09004211 C287.59216817 47.68161864 289.18867875 49.27203981 290.78623962 50.86140442 C293.31990412 53.38220791 295.85034635 55.90620715 298.38000488 58.43103027 C303.75052909 63.79017296 309.12497054 69.14537643 314.5 74.5 C320.73264515 80.70898339 326.96364031 86.919604 333.19041443 93.13447571 C335.67375811 95.61137487 338.16011297 98.08522341 340.64660645 100.55895996 C342.18056908 102.08928735 343.71438996 103.61975685 345.24804688 105.15039062 C345.9318895 105.82906693 346.61573212 106.50774323 347.32029724 107.20698547 C351.20690813 111.09317315 354.89019289 115.09632821 358.48153114 119.25666428 C360.16188865 121.1858624 361.90969032 123.01867972 363.73217773 124.81396484 C364.37231308 125.44756927 365.01244843 126.08117371 365.67198181 126.73397827 C366.33581375 127.38637482 366.99964569 128.03877136 367.68359375 128.7109375 C369.11926706 130.13398704 370.55481034 131.55716777 371.99023438 132.98046875 C374.22918599 135.19443593 376.4697262 137.40675244 378.71264648 139.61669922 C380.89477043 141.76880803 383.07078648 143.92694199 385.24609375 146.0859375 C385.92409531 146.75047943 386.60209686 147.41502136 387.30064392 148.09970093 C387.91871414 148.7143924 388.53678436 149.32908386 389.17358398 149.96240234 C389.72094711 150.50230804 390.26831024 151.04221375 390.83226013 151.59848022 C392 153 392 153 392 155 C388.55684141 158.25704191 384.74306476 161.09658124 381 164 C380.1649292 164.65331299 380.1649292 164.65331299 379.31298828 165.31982422 C348.40080261 189.33330406 312.16071553 203.61639058 273.9375 210.8125 C272.8446167 211.0194751 271.7517334 211.2264502 270.62573242 211.43969727 C215.43253032 221.3680359 152.185115 207.78420534 105.7890625 176.01171875 C104.86867188 175.34785156 103.94828125 174.68398438 103 174 C102.03835937 173.32582031 101.07671875 172.65164063 100.0859375 171.95703125 C89.40750609 164.35269373 79.51030635 156.00516877 70 147 C69.06929688 146.1234375 68.13859375 145.246875 67.1796875 144.34375 C60.03158528 137.41966238 53.94776961 129.95806762 48 122 C47.5786377 121.44473633 47.15727539 120.88947266 46.72314453 120.31738281 C22.34336252 88.08390296 -0.50561704 41.30979886 0 0 Z " fill="#2A8147" transform="translate(51,286)"/>
<path d="M0 0 C0 76.89 0 153.78 0 233 C-76.89 233 -153.78 233 -233 233 C-233 212.82532051 -233 212.82532051 -231.9375 204.625 C-231.81028564 203.63169678 -231.68307129 202.63839355 -231.55200195 201.61499023 C-226.04626073 162.52817538 -209.93422214 124.3275607 -186 93 C-185.52224121 92.37270996 -185.04448242 91.74541992 -184.55224609 91.09912109 C-173.34913281 76.53253672 -160.68038992 63.11223959 -146 52 C-145.46117187 51.58476074 -144.92234375 51.16952148 -144.3671875 50.74169922 C-129.60944766 39.39627311 -113.86117371 29.87418928 -97 22 C-96.3694873 21.7014209 -95.73897461 21.4028418 -95.08935547 21.09521484 C-65.08799952 6.99004237 -33.12314473 0 0 0 Z " fill="#2A8147" transform="translate(283,25)"/>
</svg>
