<svg version="1.1" id="Layer_1" xmlns="http://www.w3.org/2000/svg" xmlns:xlink="http://www.w3.org/1999/xlink" x="0px" y="0px"
	 width="100%" viewBox="0 0 367 337" enable-background="new 0 0 367 337" xml:space="preserve">
<path fill="#FFFFFF" opacity="1.000000" stroke="none" 
	d="
M254.000000,338.000000 
	C169.333344,338.000000 85.166695,338.000000 1.000034,338.000000 
	C1.000023,225.666702 1.000023,113.333405 1.000011,1.000079 
	C123.333275,1.000053 245.666550,1.000053 367.999878,1.000026 
	C367.999908,113.333252 367.999908,225.666504 367.999939,337.999878 
	C330.166656,338.000000 292.333344,338.000000 254.000000,338.000000 
M269.739258,113.153641 
	C260.968750,105.038429 252.264038,96.850655 243.413254,88.823944 
	C227.660507,74.537918 211.819351,60.349384 195.469574,45.480118 
	C195.155945,45.373016 194.842499,45.172642 194.528671,45.172070 
	C164.877960,45.117954 135.225174,44.867023 105.577576,45.153130 
	C95.066460,45.254559 88.955574,52.374111 88.957092,62.979580 
	C88.965538,122.116180 88.993538,181.252792 89.059593,240.389359 
	C89.072487,251.930695 96.252129,258.990631 107.795570,258.993164 
	C155.937927,259.003784 204.082092,258.779633 252.221176,259.176636 
	C262.188934,259.258850 271.372314,250.350128 271.154663,240.425491 
	C270.626526,216.344955 271.040985,192.245300 270.875732,168.154724 
	C270.754791,150.526276 270.317352,132.899994 270.013092,115.272873 
	C270.004517,114.775970 269.906097,114.280632 269.739258,113.153641 
M68.067863,130.479813 
	C71.775726,141.014618 75.483589,151.549438 79.191444,162.084244 
	C79.426476,162.012054 79.661499,161.939865 79.896530,161.867661 
	C79.896530,131.262146 79.896530,100.656624 79.896530,69.402855 
	C75.536385,70.880463 71.870247,71.894264 68.386749,73.346230 
	C57.899658,77.717392 53.881107,85.113640 56.954639,96.085701 
	C60.130909,107.424522 64.188416,118.516502 68.067863,130.479813 
M134.647507,268.778168 
	C128.189117,268.778168 121.730721,268.778168 115.252220,268.778168 
	C115.768799,280.203766 127.558884,290.670746 139.698456,285.612640 
	C150.818726,280.979248 162.560730,277.845642 173.999832,273.965820 
	C178.264801,272.519287 182.447815,270.831146 187.948639,268.774414 
	C169.439484,268.774414 152.528503,268.774414 134.647507,268.778168 
M287.126892,185.241013 
	C284.983368,179.172516 282.839813,173.104019 280.298035,165.908035 
	C280.298035,190.805939 280.298035,214.326050 280.298035,237.884384 
	C292.717255,236.715515 301.901611,223.645142 296.389191,211.846588 
	C292.545074,203.618790 290.340454,194.625000 287.126892,185.241013 
z"/>
<path fill="#C3EFC3" opacity="1.000000" stroke="none" 
	d="
M269.849548,113.784561 
	C269.906097,114.280632 270.004517,114.775970 270.013092,115.272873 
	C270.317352,132.899994 270.754791,150.526276 270.875732,168.154724 
	C271.040985,192.245300 270.626526,216.344955 271.154663,240.425491 
	C271.372314,250.350128 262.188934,259.258850 252.221176,259.176636 
	C204.082092,258.779633 155.937927,259.003784 107.795570,258.993164 
	C96.252129,258.990631 89.072487,251.930695 89.059593,240.389359 
	C88.993538,181.252792 88.965538,122.116180 88.957092,62.979580 
	C88.955574,52.374111 95.066460,45.254559 105.577576,45.153130 
	C135.225174,44.867023 164.877960,45.117954 194.528671,45.172070 
	C194.842499,45.172642 195.155945,45.373016 195.671783,46.256554 
	C195.866501,63.832855 196.485947,80.663445 195.664673,97.423431 
	C194.931030,112.394615 207.731674,126.857307 226.895157,122.406357 
	C241.113754,119.103928 255.524429,116.628410 269.849548,113.784561 
M141.480270,180.603867 
	C140.383209,179.753479 139.374084,178.362991 138.170486,178.167038 
	C135.790375,177.779572 133.302734,178.052689 130.938599,178.052689 
	C130.291550,171.565979 130.291473,171.558075 135.625946,171.506088 
	C137.903915,171.483887 140.182281,171.502380 142.625046,171.502380 
	C142.625046,169.004440 142.625046,167.241028 142.625046,165.199661 
	C135.816223,165.199661 129.250168,165.199661 122.422974,165.199661 
	C122.422974,176.194565 122.422974,186.920959 122.422974,197.831421 
	C129.281494,197.831421 135.841446,197.831421 142.557098,197.831421 
	C142.557098,195.772003 142.557098,194.040970 142.557098,191.752075 
	C138.512665,191.752075 134.759003,191.752075 131.109283,191.752075 
	C129.959702,184.685165 130.058289,184.644424 136.217987,184.457336 
	C138.386978,184.391449 141.697479,185.786591 141.480270,180.603867 
M212.546494,171.850128 
	C205.300064,174.569519 201.898560,180.408859 203.211884,187.874817 
	C204.370865,194.463440 209.836151,198.865097 216.761215,198.787216 
	C222.787628,198.719437 227.493942,194.996323 228.487549,188.397385 
	C224.818741,189.484009 221.559555,190.191132 218.511398,191.421219 
	C215.139099,192.782059 213.052429,191.706146 211.863724,186.823730 
	C217.872345,186.823730 223.732178,186.823730 229.492920,186.823730 
	C230.367538,175.928726 223.883957,170.156113 212.546494,171.850128 
M188.293213,191.388809 
	C187.797974,191.389740 187.059128,191.601974 186.846970,191.357361 
	C185.450516,189.747269 183.216187,188.110413 183.083160,186.344574 
	C182.908356,184.024261 183.912720,181.137650 185.436356,179.388672 
	C186.097672,178.629562 189.303497,180.184143 191.379288,180.536377 
	C194.150696,181.006638 196.947113,181.329498 200.057404,181.760681 
	C198.297562,174.115829 192.714020,170.359787 185.820602,171.317154 
	C178.330627,172.357376 173.646271,178.386383 174.259460,186.196869 
	C174.849045,193.706757 180.315079,198.816055 187.719498,198.778473 
	C194.358871,198.744766 199.154495,194.749954 199.682053,187.395599 
	C195.778839,188.793854 192.442734,189.988953 188.293213,191.388809 
M146.542496,197.818237 
	C152.422897,199.772095 156.189713,197.178528 158.637421,190.761703 
	C161.771179,197.099930 165.612442,199.972229 172.173950,197.414597 
	C169.943420,194.125351 167.956985,190.912125 165.673065,187.926453 
	C164.112854,185.886902 164.046371,184.348602 165.641281,182.240372 
	C167.979126,179.150131 169.917755,175.757874 172.290161,172.086227 
	C169.008041,172.086227 166.139297,171.302643 164.183823,172.303482 
	C162.170822,173.333725 161.048203,176.103668 159.491943,178.170868 
	C153.100891,170.971405 153.010757,170.934570 144.989670,172.945755 
	C156.420563,180.753860 153.229172,188.910782 146.542496,197.818237 
M242.074997,189.455780 
	C242.074997,180.725006 242.074997,171.994232 242.074997,163.357269 
	C239.003662,163.357269 236.744064,163.357269 234.322296,163.357269 
	C234.322296,175.022827 234.322296,186.385971 234.322296,197.755524 
	C237.045242,197.755524 239.415054,197.755524 242.075043,197.755524 
	C242.075043,195.054047 242.075043,192.745987 242.074997,189.455780 
z"/>
<path fill="#2C8248" opacity="1.000000" stroke="none" 
	d="
M269.794403,113.469101 
	C255.524429,116.628410 241.113754,119.103928 226.895157,122.406357 
	C207.731674,126.857307 194.931030,112.394615 195.664673,97.423431 
	C196.485947,80.663445 195.866501,63.832855 195.944580,46.576534 
	C211.819351,60.349384 227.660507,74.537918 243.413254,88.823944 
	C252.264038,96.850655 260.968750,105.038429 269.794403,113.469101 
z"/>
<path fill="#2D8249" opacity="1.000000" stroke="none" 
	d="
M67.964142,130.098145 
	C64.188416,118.516502 60.130909,107.424522 56.954639,96.085701 
	C53.881107,85.113640 57.899658,77.717392 68.386749,73.346230 
	C71.870247,71.894264 75.536385,70.880463 79.896530,69.402855 
	C79.896530,100.656624 79.896530,131.262146 79.896530,161.867661 
	C79.661499,161.939865 79.426476,162.012054 79.191444,162.084244 
	C75.483589,151.549438 71.775726,141.014618 67.964142,130.098145 
z"/>
<path fill="#33864E" opacity="1.000000" stroke="none" 
	d="
M135.132507,268.776306 
	C152.528503,268.774414 169.439484,268.774414 187.948639,268.774414 
	C182.447815,270.831146 178.264801,272.519287 173.999832,273.965820 
	C162.560730,277.845642 150.818726,280.979248 139.698456,285.612640 
	C127.558884,290.670746 115.768799,280.203766 115.252220,268.778168 
	C121.730721,268.778168 128.189117,268.778168 135.132507,268.776306 
z"/>
<path fill="#2D834A" opacity="1.000000" stroke="none" 
	d="
M287.265198,185.607193 
	C290.340454,194.625000 292.545074,203.618790 296.389191,211.846588 
	C301.901611,223.645142 292.717255,236.715515 280.298035,237.884384 
	C280.298035,214.326050 280.298035,190.805939 280.298035,165.908035 
	C282.839813,173.104019 284.983368,179.172516 287.265198,185.607193 
z"/>
<path fill="#2E844B" opacity="1.000000" stroke="none" 
	d="
M141.489334,181.007416 
	C141.697479,185.786591 138.386978,184.391449 136.217987,184.457336 
	C130.058289,184.644424 129.959702,184.685165 131.109283,191.752075 
	C134.759003,191.752075 138.512665,191.752075 142.557098,191.752075 
	C142.557098,194.040970 142.557098,195.772003 142.557098,197.831421 
	C135.841446,197.831421 129.281494,197.831421 122.422974,197.831421 
	C122.422974,186.920959 122.422974,176.194565 122.422974,165.199661 
	C129.250168,165.199661 135.816223,165.199661 142.625046,165.199661 
	C142.625046,167.241028 142.625046,169.004440 142.625046,171.502380 
	C140.182281,171.502380 137.903915,171.483887 135.625946,171.506088 
	C130.291473,171.558075 130.291550,171.565979 130.938599,178.052689 
	C133.302734,178.052689 135.790375,177.779572 138.170486,178.167038 
	C139.374084,178.362991 140.383209,179.753479 141.489334,181.007416 
z"/>
<path fill="#32874E" opacity="1.000000" stroke="none" 
	d="
M212.931335,171.749084 
	C223.883957,170.156113 230.367538,175.928726 229.492920,186.823730 
	C223.732178,186.823730 217.872345,186.823730 211.863724,186.823730 
	C213.052429,191.706146 215.139099,192.782059 218.511398,191.421219 
	C221.559555,190.191132 224.818741,189.484009 228.487549,188.397385 
	C227.493942,194.996323 222.787628,198.719437 216.761215,198.787216 
	C209.836151,198.865097 204.370865,194.463440 203.211884,187.874817 
	C201.898560,180.408859 205.300064,174.569519 212.931335,171.749084 
M214.853729,178.123367 
	C213.793777,179.102676 212.733826,180.081985 210.977707,181.704529 
	C215.093948,181.704529 217.968994,181.704529 220.844025,181.704529 
	C220.979233,181.183533 221.114441,180.662552 221.249649,180.141556 
	C219.389481,179.433655 217.529312,178.725739 214.853729,178.123367 
z"/>
<path fill="#30864C" opacity="1.000000" stroke="none" 
	d="
M188.699921,191.286438 
	C192.442734,189.988953 195.778839,188.793854 199.682053,187.395599 
	C199.154495,194.749954 194.358871,198.744766 187.719498,198.778473 
	C180.315079,198.816055 174.849045,193.706757 174.259460,186.196869 
	C173.646271,178.386383 178.330627,172.357376 185.820602,171.317154 
	C192.714020,170.359787 198.297562,174.115829 200.057404,181.760681 
	C196.947113,181.329498 194.150696,181.006638 191.379288,180.536377 
	C189.303497,180.184143 186.097672,178.629562 185.436356,179.388672 
	C183.912720,181.137650 182.908356,184.024261 183.083160,186.344574 
	C183.216187,188.110413 185.450516,189.747269 186.846970,191.357361 
	C187.059128,191.601974 187.797974,191.389740 188.699921,191.286438 
z"/>
<path fill="#2F854B" opacity="1.000000" stroke="none" 
	d="
M146.465164,197.442505 
	C153.229172,188.910782 156.420563,180.753860 144.989670,172.945755 
	C153.010757,170.934570 153.100891,170.971405 159.491943,178.170868 
	C161.048203,176.103668 162.170822,173.333725 164.183823,172.303482 
	C166.139297,171.302643 169.008041,172.086227 172.290161,172.086227 
	C169.917755,175.757874 167.979126,179.150131 165.641281,182.240372 
	C164.046371,184.348602 164.112854,185.886902 165.673065,187.926453 
	C167.956985,190.912125 169.943420,194.125351 172.173950,197.414597 
	C165.612442,199.972229 161.771179,197.099930 158.637421,190.761703 
	C156.189713,197.178528 152.422897,199.772095 146.465164,197.442505 
z"/>
<path fill="#2D8349" opacity="1.000000" stroke="none" 
	d="
M242.075012,189.946854 
	C242.075043,192.745987 242.075043,195.054047 242.075043,197.755524 
	C239.415054,197.755524 237.045242,197.755524 234.322296,197.755524 
	C234.322296,186.385971 234.322296,175.022827 234.322296,163.357269 
	C236.744064,163.357269 239.003662,163.357269 242.074997,163.357269 
	C242.074997,171.994232 242.074997,180.725006 242.075012,189.946854 
z"/>
<path fill="#BFECBF" opacity="1.000000" stroke="none" 
	d="
M215.261444,178.070602 
	C217.529312,178.725739 219.389481,179.433655 221.249649,180.141556 
	C221.114441,180.662552 220.979233,181.183533 220.844025,181.704529 
	C217.968994,181.704529 215.093948,181.704529 210.977707,181.704529 
	C212.733826,180.081985 213.793777,179.102676 215.261444,178.070602 
z"/>
</svg>