<?xml version="1.0" encoding="UTF-8"?>
<svg version="1.1" xmlns="http://www.w3.org/2000/svg" width="440" height="427">
<path d="M0 0 C145.2 0 290.4 0 440 0 C440 140.91 440 281.82 440 427 C294.8 427 149.6 427 0 427 C0 286.09 0 145.18 0 0 Z " fill="#FDFEFE" transform="translate(0,0)"/>
<path d="M0 0 C0.91929385 -0.07667373 1.8385877 -0.15334745 2.78573895 -0.23234463 C5.83721165 -0.47111829 8.88866622 -0.66542892 11.9440918 -0.84643555 C13.52651169 -0.94216732 13.52651169 -0.94216732 15.14089966 -1.03983307 C23.13845794 -1.49708518 31.13546781 -1.7827061 39.14331055 -1.9831543 C40.88869425 -2.02884111 40.88869425 -2.02884111 42.66933823 -2.0754509 C69.32762791 -2.67403946 94.85400204 -3.20631734 115.47986317 15.71028423 C118.15060884 18.29315563 120.65587475 21.00862432 123.14331055 23.7668457 C123.62827122 24.28962978 124.11323189 24.81241386 124.61288834 25.35103989 C134.94479647 36.53758221 142.11074054 47.3647132 142.1784668 63.0402832 C142.07489049 65.07918984 141.95988777 67.11756264 141.83105469 69.1550293 C141.56372852 74.36478452 142.50869864 76.6318012 145.95581055 80.5168457 C148.08216304 82.32314168 150.22631139 83.94934497 152.58866882 85.43437195 C155.5522537 87.53714976 157.51366707 89.14375327 158.47375488 92.7328949 C158.70721047 95.67500806 158.72269353 98.54273911 158.6550293 101.4934082 C158.65461136 102.56303802 158.65419342 103.63266785 158.65376282 104.73471069 C158.64540143 106.98903562 158.61998956 109.24335376 158.57861328 111.49731445 C158.51838275 114.95020635 158.51704304 118.39944046 158.52416992 121.8527832 C158.50876506 124.04551871 158.48999976 126.23823372 158.4675293 128.4309082 C158.46621506 129.46325592 158.46490082 130.49560364 158.46354675 131.55923462 C158.2981952 138.69015562 158.2981952 138.69015562 155.91601562 141.94799805 C152.04152083 144.51466373 149.57636397 144.45907169 144.90434265 144.4697876 C143.82288797 144.47424428 143.82288797 144.47424428 142.71958572 144.478791 C140.29139841 144.48749792 137.86326029 144.48898792 135.43505859 144.49047852 C133.69905491 144.4951053 131.96305225 144.50012977 130.22705078 144.50552368 C125.50177797 144.51866355 120.77651938 144.52509578 116.05123115 144.52953434 C113.10066329 144.53246263 110.15009935 144.53656698 107.19953346 144.54103851 C97.97258258 144.55471789 88.7456406 144.56438228 79.51868027 144.5682404 C68.8589089 144.57272179 58.19926571 144.59027161 47.53953332 144.619241 C39.30593466 144.64084205 31.07237211 144.65094385 22.83874542 144.65228152 C17.91844976 144.65333072 12.99827453 144.65926286 8.07800865 144.67710114 C3.44954749 144.69355449 -1.17870237 144.69575066 -5.80718231 144.68696213 C-7.50633751 144.68619027 -9.20550393 144.69055399 -10.90463066 144.70042038 C-13.22393016 144.71309841 -15.54247663 144.70728612 -17.86177063 144.69683838 C-19.15982289 144.69830494 -20.45787516 144.6997715 -21.79526234 144.7012825 C-25.4082345 144.30299373 -27.29670683 143.51466156 -30.16918945 141.3293457 C-31.36130621 138.94511218 -31.34062286 137.37806755 -31.40966797 134.71533203 C-31.44828697 133.27792412 -31.44828697 133.27792412 -31.48768616 131.81147766 C-31.57195733 127.41709449 -31.63773427 123.02287932 -31.68408203 118.62792969 C-31.71570187 116.31254694 -31.76343456 113.99732563 -31.82763672 111.68261719 C-31.91904434 108.34158526 -31.95772439 105.00347182 -31.9855957 101.66137695 C-32.02374893 100.63196487 -32.06190216 99.6025528 -32.10121155 98.54194641 C-32.0821625 91.46941096 -32.0821625 91.46941096 -29.61398315 88.38729858 C-27.52691849 86.60570316 -25.37043188 84.96731691 -23.16918945 83.3293457 C-18.79563463 79.72971728 -15.63752829 76.63077792 -14.48086548 70.94689941 C-14.23093325 66.85671734 -14.24388848 62.8439457 -14.3449707 58.7512207 C-14.35015808 57.25149383 -14.35107543 55.75174674 -14.34794617 54.25201416 C-14.34783416 50.32743405 -14.39087381 46.40471665 -14.44775391 42.48059082 C-14.53668884 36.18764482 -14.5816016 29.89521162 -14.5842495 23.60166168 C-14.59480278 21.41107783 -14.6375494 19.22275478 -14.68293762 17.03265381 C-14.69045228 15.68722168 -14.69675777 14.34178207 -14.70166016 12.99633789 C-14.71912796 11.8265741 -14.73659576 10.6568103 -14.7545929 9.45159912 C-13.22073069 1.27073414 -7.10654993 0.47327338 0 0 Z " fill="#E5E5E5" transform="translate(152.169189453125,108.670654296875)"/>
<path d="M0 0 C0.66 0 1.32 0 2 0 C2 4.95 2 9.9 2 15 C53.15 15 104.3 15 157 15 C157 10.05 157 5.1 157 0 C157.66 0 158.32 0 159 0 C160.70047804 1.76941634 162.20805753 3.66443425 163.7578125 5.56640625 C165.81818258 7.97199786 165.81818258 7.97199786 167.93655396 9.37298584 C171.14212977 11.72605418 173.58372806 13.58698658 174.73379517 17.49082947 C174.99023632 20.44286361 175.00508462 23.29968658 174.921875 26.26171875 C174.92004211 27.32993362 174.91820923 28.3981485 174.9163208 29.49873352 C174.90427916 31.74714025 174.8728766 33.99551714 174.82324219 36.2434082 C174.74999875 39.68755886 174.74120515 43.12741575 174.7421875 46.57226562 C174.72253117 48.7604539 174.69921973 50.94861305 174.671875 53.13671875 C174.66742371 54.16592941 174.66297241 55.19514008 174.65838623 56.25553894 C174.46916948 63.35964221 174.46916948 63.35964221 172.08300781 66.61645508 C168.21131026 69.18805729 165.74517862 69.12972685 161.0735321 69.14044189 C160.35256232 69.14341302 159.63159253 69.14638414 158.88877517 69.1494453 C156.46058787 69.15815221 154.03244975 69.15964222 151.60424805 69.16113281 C149.86824436 69.16575959 148.1322417 69.17078406 146.39624023 69.17617798 C141.67096742 69.18931785 136.94570883 69.19575007 132.2204206 69.20018864 C129.26985275 69.20311693 126.3192888 69.20722128 123.36872292 69.21169281 C114.14177203 69.22537218 104.91483005 69.23503657 95.68786973 69.2388947 C85.02809835 69.24337609 74.36845516 69.26092591 63.70872277 69.2898953 C55.47512412 69.31149635 47.24156156 69.32159815 39.00793487 69.32293582 C34.08763921 69.32398502 29.16746399 69.32991716 24.2471981 69.34775543 C19.61873695 69.36420879 14.99048708 69.36640496 10.36200714 69.35761642 C8.66285194 69.35684457 6.96368552 69.36120829 5.26455879 69.37107468 C2.9452593 69.38375271 0.62671282 69.37794042 -1.69258118 69.36749268 C-2.99063344 69.36895924 -4.2886857 69.3704258 -5.62607288 69.3719368 C-9.23904505 68.97364802 -11.12751737 68.18531586 -14 66 C-15.19211676 63.61576648 -15.17143341 62.04872185 -15.24047852 59.38598633 C-15.26622452 58.42771439 -15.29197052 57.46944244 -15.3184967 56.48213196 C-15.40276788 52.08774879 -15.46854482 47.69353361 -15.51489258 43.29858398 C-15.54651241 40.98320124 -15.5942451 38.66797992 -15.65844727 36.35327148 C-15.74985488 33.01223956 -15.78853494 29.67412611 -15.81640625 26.33203125 C-15.85455948 25.30261917 -15.89271271 24.27320709 -15.93202209 23.21260071 C-15.91294227 16.12863943 -15.91294227 16.12863943 -13.24237061 12.82710266 C-11.23577858 11.07212382 -9.17527167 9.53651431 -7 8 C-5.66937205 6.55578185 -4.36545142 5.08487219 -3.125 3.5625 C-1.4453125 1.50390625 -1.4453125 1.50390625 0 0 Z " fill="#2D824A" transform="translate(136,184)"/>
<path d="M0 0 C51.15 0 102.3 0 155 0 C155 13.2 155 26.4 155 40 C149.37473167 44.50021466 149.37473167 44.50021466 143.9276123 44.5146637 C142.70791245 44.52738815 141.48821259 44.54011261 140.23155212 44.55322266 C138.88809009 44.54704085 137.54462996 44.54043487 136.20117188 44.53344727 C134.77998459 44.540508 133.35880482 44.54925367 131.93763733 44.55955505 C128.08429137 44.58204049 124.23135629 44.5791117 120.37796974 44.57023358 C117.15966174 44.56512092 113.94143077 44.5724184 110.7231307 44.57970566 C103.13094432 44.59670155 95.53895896 44.59314154 87.94677734 44.57641602 C80.11617325 44.55948829 72.28612635 44.57533849 64.4555831 44.6076389 C57.72930322 44.63433238 51.00319682 44.64161169 44.2768693 44.63312382 C40.26086464 44.62819463 36.24519535 44.6304096 32.22923279 44.65091133 C28.45330045 44.66926544 24.67817003 44.66331428 20.90228081 44.63871193 C19.51758156 44.63370332 18.13282124 44.63719532 16.74817085 44.64986038 C14.85629644 44.66579453 12.9642274 44.64781626 11.0723877 44.62818909 C9.48512249 44.62730962 9.48512249 44.62730962 7.86579132 44.62641239 C5 44 5 44 0 39 C0 26.13 0 13.26 0 0 Z " fill="#E6E6E6" transform="translate(138,253)"/>
<path d="M0 0 C5.86970122 4.87336087 11.26604835 10.12056808 16.65234375 15.51953125 C18.00254356 16.86829597 18.00254356 16.86829597 19.38002014 18.24430847 C21.26964342 20.13325439 23.15823816 22.02316308 25.04516602 23.91479492 C27.46847733 26.34385209 29.89631743 28.76832574 32.32547665 31.19153309 C34.64518724 33.50677961 36.961105 35.82581218 39.27734375 38.14453125 C40.15220932 39.01737259 41.02707489 39.89021393 41.92845154 40.789505 C42.72670853 41.59091415 43.52496552 42.3923233 44.34741211 43.21801758 C45.40828285 44.28008171 45.40828285 44.28008171 46.49058533 45.36360168 C48 47 48 47 48 48 C41.96774061 48.09899561 35.93595573 48.17152907 29.90307617 48.21972656 C27.85156007 48.23982199 25.80010111 48.26710324 23.7487793 48.30175781 C20.79721975 48.35036669 17.84641852 48.37298952 14.89453125 48.390625 C13.97976517 48.41127014 13.06499908 48.43191528 12.12251282 48.45318604 C8.20033539 48.4545631 5.51809301 48.23463289 1.91210938 46.6015625 C-1.04525711 42.57785243 -0.62161118 38.85022814 -0.48828125 33.984375 C-0.48120651 33.01340881 -0.47413177 32.04244263 -0.46684265 31.04205322 C-0.43887633 27.94391506 -0.37613268 24.84759092 -0.3125 21.75 C-0.28742007 19.64846362 -0.26460637 17.54689888 -0.24414062 15.4453125 C-0.18904207 10.29617713 -0.10275293 5.148396 0 0 Z " fill="#B3B3B3" transform="translate(245,111)"/>
</svg>
