<svg width="23" height="18" viewBox="0 0 23 18" fill="none" xmlns="http://www.w3.org/2000/svg">
<path d="M13.4 5V3C13.4 2.46957 13.1625 1.96086 12.7397 1.58579C12.3168 1.21071 11.7434 1 11.1455 1H3.25455C2.6566 1 2.08315 1.21071 1.66034 1.58579C1.23753 1.96086 1 2.46957 1 3V15C1 15.5304 1.23753 16.0391 1.66034 16.4142C2.08315 16.7893 2.6566 17 3.25455 17H11.1455C11.7434 17 12.3168 16.7893 12.7397 16.4142C13.1625 16.0391 13.4 15.5304 13.4 15V13M7.76364 9H21.2909M21.2909 9L17.9091 6M21.2909 9L17.9091 12" stroke="white" stroke-width="1.5" stroke-linecap="round" stroke-linejoin="round"/>
</svg>
