<svg width="427" height="62" viewBox="0 0 427 62" fill="none" xmlns="http://www.w3.org/2000/svg">
<path d="M412.599 52.0004L396.338 30.5552V52.0004H384.556V3.4375H396.338V24.7443L412.461 3.4375H426.311L407.569 27.2347L427 52.0004H412.599Z" fill="#FF8500"/>
<path d="M330.075 27.6475C330.075 22.8512 331.108 18.5852 333.175 14.8496C335.242 11.0679 338.113 8.13936 341.788 6.06402C345.509 3.94256 349.712 2.88184 354.397 2.88184C360.139 2.88184 365.054 4.40375 369.143 7.44758C373.231 10.4914 375.964 14.6421 377.342 19.8996H364.388C363.424 17.8704 362.046 16.3254 360.254 15.2647C358.509 14.204 356.51 13.6736 354.26 13.6736C350.631 13.6736 347.691 14.9418 345.44 17.4784C343.189 20.0149 342.064 23.4046 342.064 27.6475C342.064 31.8904 343.189 35.2801 345.44 37.8167C347.691 40.3532 350.631 41.6215 354.26 41.6215C356.51 41.6215 358.509 41.0911 360.254 40.0304C362.046 38.9696 363.424 37.4247 364.388 35.3954H377.342C375.964 40.653 373.231 44.8036 369.143 47.8475C365.054 50.8452 360.139 52.344 354.397 52.344C349.712 52.344 345.509 51.3064 341.788 49.231C338.113 47.1096 335.242 44.181 333.175 40.4454C331.108 36.7098 330.075 32.4439 330.075 27.6475Z" fill="#FF8500"/>
<path d="M310.113 61.5642C303.734 60.6681 286.114 45.4247 297.866 42.4484C313.211 38.5603 322.39 33.1551 327.291 18.1948C327.291 18.1948 324.549 24.9759 317.666 30.723C309.145 37.8359 282.726 48.1801 300.844 17.2804C300.844 17.2804 307.295 25.3826 310.631 34.2385C315.662 31.7641 319.3 28.4719 322.295 24.6473C319.651 27.5575 316.529 28.6436 316.529 28.6436C311.922 19.9728 304.515 12.6308 301.246 0C297.104 14.8174 284.573 22.5647 284.235 38.0481C283.7 62.6019 310.96 61.9987 310.96 61.9987C310.96 61.9987 310.712 61.6481 310.113 61.5642Z" fill="#FF8500"/>
<path d="M311.933 38.4124C313.389 44.512 312.682 50.43 306.733 53.8119C306.733 53.8119 321.2 51.1234 319.763 38.014L325.926 23.9854C322.505 31.0861 317.774 35.4083 311.933 38.4124Z" fill="#FF8500"/>
<path d="M260.986 52.0004L250.926 33.6682H248.101V52.0004H236.318V3.4375H256.093C259.906 3.4375 263.145 4.10622 265.809 5.44366C268.519 6.7811 270.54 8.62584 271.872 10.9779C273.204 13.2838 273.87 15.8665 273.87 18.7258C273.87 21.9541 272.952 24.8365 271.114 27.373C269.323 29.9096 266.659 31.7082 263.122 32.7689L274.284 52.0004H260.986ZM248.101 25.2977H255.404C257.563 25.2977 259.171 24.7673 260.228 23.7066C261.33 22.6459 261.881 21.147 261.881 19.2101C261.881 17.3653 261.33 15.9126 260.228 14.8519C259.171 13.7911 257.563 13.2608 255.404 13.2608H248.101V25.2977Z" fill="#FF8500"/>
<path d="M230.406 3.4375V12.9149H217.59V52.0004H205.808V12.9149H192.992V3.4375H230.406Z" fill="#FF8500"/>
<path d="M159.952 42.8689H175.386V52.0004H148.169V3.4375H159.952V42.8689Z" fill="#273142"/>
<path d="M127.114 42.8689H142.548V52.0004H115.332V3.4375H127.114V42.8689Z" fill="#273142"/>
<path d="M106.793 3.4375V52.0004H95.0107V3.4375H106.793Z" fill="#273142"/>
<path d="M74.7297 52.0004L64.6699 33.6682H61.8449V52.0004H50.0625V3.4375H69.8376C73.6502 3.4375 76.8886 4.10622 79.5529 5.44366C82.2631 6.7811 84.2842 8.62584 85.6163 10.9779C86.9485 13.2838 87.6145 15.8665 87.6145 18.7258C87.6145 21.9541 86.6958 24.8365 84.8584 27.373C83.0669 29.9096 80.4027 31.7082 76.8657 32.7689L88.0279 52.0004H74.7297ZM61.8449 25.2977H69.1486C71.3075 25.2977 72.9153 24.7673 73.9718 23.7066C75.0742 22.6459 75.6254 21.147 75.6254 19.2101C75.6254 17.3653 75.0742 15.9126 73.9718 14.8519C72.9153 13.7911 71.3075 13.2608 69.1486 13.2608H61.8449V25.2977Z" fill="#273142"/>
<path d="M18.1214 2.99805C23.2202 2.99805 27.6759 4.01265 31.4886 6.04187C35.3012 8.07109 38.241 10.9304 40.3081 14.6199C42.4211 18.2633 43.4776 22.4832 43.4776 27.2795C43.4776 32.0297 42.4211 36.2495 40.3081 39.939C38.241 43.6285 35.2782 46.4879 31.4197 48.5171C27.607 50.5463 23.1743 51.5609 18.1214 51.5609H0V2.99805H18.1214ZM17.3635 41.3226C21.8192 41.3226 25.2873 40.1005 27.7678 37.6562C30.2483 35.2119 31.4886 31.753 31.4886 27.2795C31.4886 22.806 30.2483 19.324 27.7678 16.8336C25.2873 14.3432 21.8192 13.098 17.3635 13.098H11.7824V41.3226H17.3635Z" fill="#273142"/>
</svg>
