<svg version="1.1" id="Layer_1" xmlns="http://www.w3.org/2000/svg" xmlns:xlink="http://www.w3.org/1999/xlink" x="0px" y="0px"
	 width="100%" viewBox="0 0 432 336" enable-background="new 0 0 432 336" xml:space="preserve">
<path fill="#000000" opacity="1.000000" stroke="none" 
	d="
M87.986725,207.022644 
	C91.337029,207.375259 94.362671,208.384796 97.298798,210.226074 
	C101.418739,212.809769 105.862488,214.334305 111.017220,212.963348 
	C126.220985,208.919724 140.444519,201.523529 155.899292,200.683350 
	C156.799774,198.602661 156.155106,197.767685 155.410202,197.121750 
	C141.436356,185.004013 137.678864,168.230621 134.805908,151.206253 
	C132.343918,136.617142 135.101044,122.718063 141.871185,109.591301 
	C144.433243,104.623680 144.051102,103.647354 138.079712,101.173615 
	C144.841064,99.213783 150.462540,95.818108 157.106766,95.768829 
	C159.274551,95.752747 160.858704,94.646126 162.535522,93.539825 
	C182.300735,80.499596 200.690414,65.588890 219.721237,51.550339 
	C221.717163,50.077999 223.966003,48.950878 225.981476,47.502178 
	C231.239624,43.722710 236.060410,39.739841 239.788177,34.088982 
	C251.913528,15.708300 271.932556,13.335960 289.261017,27.666191 
	C303.417816,39.373535 312.154236,54.837791 319.060211,71.421448 
	C330.143158,98.035683 335.149658,125.963356 334.973267,154.682266 
	C334.844757,175.602234 332.180115,196.230667 322.084869,215.122253 
	C317.680450,223.364334 311.804077,230.023224 303.091003,234.259308 
	C293.526093,238.909546 284.671722,237.466141 275.966614,232.639587 
	C271.458130,230.139862 267.048553,227.222305 263.862457,223.100281 
	C260.323608,218.521912 255.850159,216.030136 250.331100,214.591629 
	C230.205017,209.345963 210.167114,203.749313 189.315903,202.032501 
	C183.417725,201.546860 177.676071,202.569626 171.980911,203.779266 
	C167.070908,204.822144 164.399292,211.187546 166.844620,215.475037 
	C168.247101,217.934052 169.361908,220.651505 171.176422,222.762482 
	C175.616180,227.927612 175.153488,233.447479 172.707748,239.027466 
	C170.873932,243.211288 171.291061,246.967361 173.045578,251.021927 
	C178.406723,263.411133 184.030884,275.663605 190.734344,287.394073 
	C192.711823,290.854523 194.873077,294.048309 198.058472,296.727417 
	C201.139801,299.319000 202.483917,303.499023 199.688812,307.006927 
	C192.966324,315.443695 184.317596,321.250336 173.578232,323.302002 
	C165.507767,324.843811 160.601730,320.651489 156.658722,313.922729 
	C144.769547,293.633636 136.613113,271.914398 130.782715,249.230759 
	C130.079056,246.493179 129.232788,243.787766 128.343628,241.103546 
	C127.277733,237.885773 125.216492,235.473373 121.776093,234.906631 
	C113.614166,233.562073 109.877068,227.903717 108.324890,220.665558 
	C107.389549,216.303864 105.211487,214.612503 101.048454,214.007080 
	C96.197464,213.301590 91.863777,211.151978 88.188065,207.279297 
	C88.004059,206.998550 87.986725,207.022644 87.986725,207.022644 
M282.004639,52.622627 
	C281.656494,48.310543 281.753082,43.901440 280.839233,39.712772 
	C279.861420,35.230961 277.426453,31.212919 272.390717,30.284590 
	C266.223328,29.147636 260.583405,30.243639 255.730743,34.798096 
	C250.230362,39.960461 245.985809,46.049603 244.083542,53.154285 
	C240.223541,67.570892 237.878571,82.328903 237.397598,97.279457 
	C237.060455,107.759056 238.395950,118.178429 239.278549,128.616547 
	C240.930069,148.148636 249.615784,165.820801 253.815659,184.693466 
	C255.371033,191.682739 260.119873,197.872864 264.491943,203.786636 
	C269.763214,210.916687 275.410828,217.697723 283.586212,221.757309 
	C293.008240,226.435913 301.171509,225.322662 308.825073,218.122635 
	C313.411377,213.808090 316.379852,208.400452 318.261688,202.444412 
	C319.330994,199.060013 318.881317,195.521851 316.157440,193.222092 
	C307.256531,185.707016 306.414581,176.660034 309.660034,166.152878 
	C314.577209,150.233490 315.010376,134.027344 310.604126,117.921890 
	C309.374817,113.428635 307.626373,109.019279 307.266022,104.390480 
	C306.240997,91.224495 298.601318,82.470512 288.485291,75.287956 
	C284.397522,72.385559 282.084961,68.573013 281.924103,63.583225 
	C281.816895,60.256721 281.979828,56.921505 282.004639,52.622627 
M226.674667,139.185745 
	C223.371796,122.015091 222.003326,104.639542 222.173126,86.888008 
	C214.566330,88.021461 210.187759,91.663223 208.275620,97.948723 
	C205.566925,106.852669 202.736359,115.748192 200.644150,124.805840 
	C193.481552,155.814529 202.537079,173.253464 226.446686,187.382904 
	C229.503448,189.189285 233.523682,191.703201 236.602966,188.829361 
	C239.128571,186.472260 237.950287,182.375824 237.002838,178.963776 
	C233.408310,166.018890 228.887451,153.315460 226.674667,139.185745 
M245.935410,175.150528 
	C245.677124,173.184418 245.726501,171.116333 245.113785,169.267685 
	C237.479507,146.234131 234.238495,122.452751 232.816589,98.347473 
	C232.634888,95.267250 232.643478,92.102165 230.682343,89.414200 
	C227.464676,91.281219 227.540054,91.290306 227.065033,95.230659 
	C224.951340,112.764015 227.171753,129.982910 230.747009,147.107269 
	C232.684845,156.388809 235.514435,165.417633 238.574326,174.376984 
	C239.227051,176.288177 240.061813,178.205475 242.350693,178.618622 
	C244.372574,178.983566 245.450058,177.849396 245.935410,175.150528 
z"/>
<path fill="#000000" opacity="1.000000" stroke="none" 
	d="
M350.687744,95.950684 
	C358.186188,69.222328 380.476654,62.504585 403.187012,69.341240 
	C419.288086,74.188240 427.901947,90.578537 425.018127,109.464958 
	C421.768768,130.745132 406.377747,142.311600 384.925201,139.486801 
	C382.451599,139.161087 380.542206,139.612305 378.438721,141.059998 
	C369.164246,147.443054 354.404236,148.143051 346.517548,142.396042 
	C353.345917,140.493484 360.775909,140.705917 365.824036,134.098755 
	C352.114716,124.962196 346.654297,112.462280 350.687744,95.950684 
M393.566254,106.918846 
	C394.802307,100.393661 396.358276,93.928719 396.714355,87.251106 
	C396.937531,83.065536 393.942596,82.633476 391.156860,82.529182 
	C388.269623,82.421089 384.548431,82.244698 384.306061,86.452675 
	C383.924194,93.083267 383.712769,99.793930 385.577515,106.275375 
	C386.792664,110.498917 389.736206,110.932121 393.566254,106.918846 
M389.209808,125.657692 
	C392.663239,124.918633 394.488678,122.968666 393.802002,119.285316 
	C393.264618,116.402817 391.381989,114.945740 388.518890,115.079544 
	C385.512054,115.220070 383.428345,116.775848 383.228760,119.941910 
	C383.003662,123.511787 384.712219,125.603127 389.209808,125.657692 
z"/>
<path fill="#000000" opacity="1.000000" stroke="none" 
	d="
M88.015198,206.988419 
	C78.013832,202.839798 68.181709,198.582672 61.969624,188.831970 
	C51.400402,172.242188 54.911961,142.180984 73.274757,131.203918 
	C73.880898,133.272324 72.519402,134.675339 71.853592,136.190613 
	C62.309025,157.912445 65.991295,178.310303 78.127357,197.781967 
	C80.433762,201.482452 85.293892,202.640182 87.817734,206.732330 
	C87.986725,207.022644 88.004059,206.998550 88.015198,206.988419 
z"/>
<path fill="#000000" opacity="1.000000" stroke="none" 
	d="
M274.775940,106.748230 
	C284.020416,112.299255 285.485535,121.563942 287.051514,130.542068 
	C287.752808,134.562454 287.466217,138.888550 286.865509,142.963531 
	C286.311157,146.723785 284.891327,150.353210 280.294861,151.383652 
	C276.137848,152.315582 274.262726,151.117783 272.706177,146.800568 
	C270.001007,139.297668 267.103333,132.003754 266.105530,123.956520 
	C265.449707,118.667389 266.217682,113.650703 267.211945,108.667442 
	C268.075836,104.337700 271.519409,105.648567 274.775940,106.748230 
M274.704559,136.105179 
	C274.015228,134.058517 273.329010,132.010803 272.635712,129.965485 
	C271.970062,128.001770 272.345947,125.367920 269.055969,124.362846 
	C269.279572,130.954330 270.796143,136.465393 274.798767,141.312408 
	C276.360321,139.585312 276.393463,138.123978 274.704559,136.105179 
z"/>
</svg>