<svg width="129" height="133" viewBox="0 0 129 133" fill="none" xmlns="http://www.w3.org/2000/svg">
<path d="M107.835 45.2142C103.805 44.5793 99.6578 44.8179 96.891 47.7277C94.124 50.6377 92.6036 55.3874 94.0579 59.1766C95.0229 61.69 95.4883 62.5282 99.0889 64.309C96.7515 66.4817 95.3054 66.5687 92.1704 66.8541C96.1248 68.5148 100.538 67.9019 102.6 65.3685C105.622 66.6238 109.73 65.4555 112.321 63.4203C115.404 60.9989 116.023 54.8945 115.109 51.6711C114.196 48.4472 111.046 45.7742 107.835 45.2142Z" fill="#F1F1F1"/>
<path d="M103.237 49.209C103.237 49.209 103.307 56.7398 103.983 57.2779C104.659 57.816 106.256 57.6043 106.375 57.3877C106.494 57.1712 107.809 49.1987 107.53 49.1423C103.626 48.3477 103.237 49.209 103.237 49.209Z" fill="white"/>
<path d="M106.785 60.7248C106.961 59.6251 106.24 58.5861 105.173 58.404C104.106 58.222 103.098 58.9659 102.922 60.0655C102.745 61.1652 103.467 62.2042 104.534 62.3862C105.6 62.5683 106.608 61.8244 106.785 60.7248Z" fill="white"/>
<path d="M11.501 64.0996C9.72645 65.6573 8.21896 68.0854 7.72876 70.4344C7.0964 73.4641 7.17819 76.2396 8.47928 79.0334C9.78037 81.8272 12.9491 84.4571 15.9388 84.7776L11.501 64.0996Z" fill="#D6D6D6"/>
<path d="M14.6337 59.6502C14.1755 60.1075 8.10733 65.6259 10.6628 76.7849C10.6628 76.7849 12.6043 87.3105 22.375 88.0854L43.6455 83.9826L38.0836 53.4508C38.0836 53.4508 37.1816 52.676 34.9267 53.4508C32.6723 54.226 15.9957 58.291 14.6337 59.6502Z" fill="#F1F1F1"/>
<path d="M35.7721 54.4657C34.4847 55.1994 33.3921 56.249 32.63 57.546C31.1557 60.0549 29.5507 64.6017 30.9455 71.4815C33.0484 81.8558 38.5565 85.2255 43.645 83.9824C49.9049 82.4535 78.4324 92.1292 78.7103 91.8544C79.9201 90.6585 72.252 30.626 68.1953 31.5706C64.3361 32.4691 44.766 49.3413 35.7721 54.4657Z" fill="#D6D6D6"/>
<path d="M77.792 93.9439C86.2512 92.4929 90.8242 77.1582 88.006 59.6928C85.1878 42.2274 76.0456 29.2451 67.5863 30.6961C59.1271 32.147 54.5541 47.4817 57.3723 64.9471C60.1905 82.4125 69.3327 95.3948 77.792 93.9439Z" fill="#D6D6D6"/>
<path d="M83.8492 85.9975C83.8492 85.9975 83.8492 85.9975 83.8492 85.9989C82.3613 88.7323 80.4104 90.4823 78.0914 90.88C71.0016 92.0964 63.176 80.1934 60.6109 64.2962C58.0472 48.399 61.7146 34.5249 68.8032 33.3101C72.1954 32.7281 75.7573 35.1503 78.8296 39.5773C78.8322 39.5813 78.8347 39.584 78.836 39.5864C78.8373 39.589 78.8373 39.5904 78.8386 39.5917C82.1838 44.4151 84.9468 51.6125 86.2824 59.8939C88.009 70.5921 86.913 80.3735 83.8492 85.9975Z" fill="#F1F1F1"/>
<path d="M59.9984 56.8167C59.9984 56.8167 70.2872 55.7029 71.12 56.3469C71.9528 56.9909 74.644 68.2611 73.4546 69.0123C72.2653 69.7637 62.615 72.5578 62.615 72.5578C62.615 72.5578 59.3738 62.72 59.9984 56.8167Z" fill="#D6D6D6"/>
<path d="M74.6331 62.0961C75.3839 65.5961 74.8246 68.6998 73.3836 69.0283C71.9427 69.3568 70.1659 66.786 69.4151 63.2859C68.6643 59.7859 69.2237 56.6822 70.6646 56.3534C72.1053 56.0252 73.8821 58.5961 74.6331 62.0961Z" fill="#D6D6D6"/>
<path d="M77.7486 93.7849C74.0242 94.4087 70.5881 92.1254 68.0891 89.5007C64.4678 85.6975 62.0243 80.7421 60.2733 75.7775C58.1063 69.634 56.9242 63.0798 56.7343 56.5481C56.5715 50.9494 57.1027 45.1442 59.078 39.8854C60.4252 36.2986 62.7207 32.4272 66.4655 31.1621C66.8474 31.0331 67.2377 30.9358 67.6337 30.8664C67.8453 30.8291 67.7555 30.4971 67.545 30.5341C63.7008 31.209 61.0713 34.6034 59.4856 38.0417C57.1868 43.0257 56.4371 48.7285 56.3785 54.198C56.3073 60.8733 57.323 67.6121 59.3163 73.9621C60.9761 79.2488 63.3543 84.5013 66.9279 88.7139C69.3611 91.5822 72.7318 94.2951 76.6147 94.2331C77.0249 94.2265 77.4331 94.185 77.8379 94.1172C78.0495 94.0818 77.9594 93.7496 77.7486 93.7849Z" fill="#525252"/>
<path d="M61.7946 41.2061C60.2966 44.3659 59.8836 48.0383 59.615 51.5058C59.4011 54.268 59.4124 56.9908 59.6702 59.7508C59.9643 62.9018 60.4697 66.0409 61.2218 69.1105C61.931 72.0065 62.7837 75.0535 64.3859 77.5749C64.5368 77.8124 64.8599 77.6076 64.7494 77.3557C59.7809 66.0082 58.7984 53.2551 61.8565 41.2327C61.8658 41.1959 61.8118 41.1693 61.7946 41.2061Z" fill="#525252"/>
<path d="M73.3395 68.862C72.6904 68.9944 72.1009 68.4874 71.6938 68.0289C71.0304 67.2814 70.5658 66.339 70.2097 65.4024C69.4012 63.2752 68.936 60.7181 69.4231 58.4537C69.5818 57.716 69.9037 56.7233 70.7092 56.5196C70.9179 56.4666 70.8295 56.1344 70.6205 56.1873C69.9014 56.3693 69.4964 57.0774 69.2675 57.7511C68.9027 58.8253 68.8684 60.0228 68.944 61.1472C69.0389 62.5556 69.3318 63.9599 69.8091 65.2832C70.1824 66.3182 70.6705 67.3458 71.3795 68.1831C71.8878 68.7835 72.6089 69.3618 73.4283 69.1945C73.6391 69.1514 73.5498 68.8191 73.3395 68.862Z" fill="#525252"/>
<path d="M73.16 65.6072C72.7258 65.662 72.378 65.2797 72.1406 64.9518C71.7694 64.4386 71.5263 63.8268 71.3532 63.2161C71.1517 62.5048 71.0449 61.763 71.0534 61.0213C71.0591 60.5253 71.0723 59.7868 71.4177 59.3905C71.7167 59.0474 72.1564 59.4405 72.3584 59.6988C72.6695 60.0962 72.8638 60.5941 73.022 61.0724C73.2516 61.7669 73.4208 62.4913 73.5591 63.2108C73.6806 63.8444 74.0568 65.4338 73.1156 65.6136C72.9043 65.654 72.9938 65.986 73.2044 65.9458C74.1688 65.7617 74.0893 64.5347 73.9887 63.7734C73.8788 62.9411 73.6814 62.1088 73.4453 61.3057C73.2689 60.7048 73.0501 60.085 72.6853 59.5756C72.4208 59.2062 71.8989 58.7295 71.4102 58.967C70.9595 59.1862 70.8328 59.8427 70.7712 60.2938C70.6582 61.1206 70.7283 61.9808 70.903 62.7932C71.0841 63.6361 71.3868 64.5017 71.901 65.193C72.1951 65.5883 72.6344 66.019 73.16 65.9525C73.3708 65.9251 73.3734 65.5801 73.16 65.6072Z" fill="#525252"/>
<path d="M41.1548 119.774C37.7482 119.892 37.4007 117.392 34.3416 111.914C31.2799 106.436 29.1434 96.1913 28.3333 94.7028C27.6379 93.4236 26.5149 93.7737 25.1833 93.1369C24.9694 93.035 24.7476 92.9052 24.5228 92.74C22.9052 91.5491 22.375 88.0858 22.375 88.0858C31.4329 84.8201 33.6984 84.083 36.4561 84.083C38.2595 84.083 39.9512 84.4629 40.0991 84.6408C40.3155 84.9012 39.7389 85.862 39.1613 86.6119C38.5836 87.3644 42.0212 92.4423 41.6762 93.9309C41.3287 95.4197 40.8661 95.538 40.8099 96.7292C40.751 97.9201 47.1043 111.2 48.3182 111.735C48.9627 112.019 49.2648 112.355 49.4307 112.78C49.5777 113.149 49.6206 113.587 49.7034 114.117C49.8773 115.247 44.5643 119.655 41.1548 119.774Z" fill="#D6D6D6"/>
<path d="M42.1494 92.4447C42.096 92.8719 41.4409 93.4922 41.4409 93.4922C41.4409 93.4922 40.5852 94.1125 39.3339 93.7899C38.0851 93.4645 36.6734 89.3899 36.6734 89.0564C36.6734 88.7228 36.5129 88.414 36.9835 87.9123C37.4541 87.4106 38.7696 87.4492 38.8284 87.4519C39.3284 87.4657 39.7214 87.8708 40.0931 88.7558C40.4701 89.6435 41.9729 91.8709 42.1334 92.2763C42.1548 92.3261 42.1574 92.384 42.1494 92.4447Z" fill="#F1F1F1"/>
</svg>
