<svg width="24" height="24" viewBox="0 0 24 24" fill="none" xmlns="http://www.w3.org/2000/svg">
<path d="M20.7543 13.4124L20.2334 13.0657C19.8535 12.8128 19.542 12.4697 19.3268 12.0672C19.1116 11.6647 18.9993 11.2152 19 10.7587V8.11458C19 6.38242 19 4.42225 18.1086 2.83258C17.0383 0.924667 14.9973 0 11.875 0C8.75267 0 6.71334 0.92625 5.64142 2.82942C4.75001 4.42067 4.75001 6.38242 4.75001 8.113V10.7603C4.74976 11.2161 4.63688 11.6648 4.42142 12.0664C4.20596 12.468 3.8946 12.8102 3.51501 13.0625L2.99726 13.4092C2.07407 14.023 1.31721 14.8558 0.794211 15.8333C0.271216 16.8107 -0.00163595 17.9025 7.37932e-06 19.0111V20.5833H8.70834C8.67417 21.0079 8.73264 21.4347 8.87969 21.8344C9.02675 22.2342 9.25888 22.5971 9.56004 22.8983C9.8612 23.1995 10.2242 23.4316 10.6239 23.5786C11.0236 23.7257 11.4505 23.7842 11.875 23.75C12.2995 23.7842 12.7264 23.7257 13.1261 23.5786C13.5258 23.4316 13.8888 23.1995 14.19 22.8983C14.4911 22.5971 14.7233 22.2342 14.8703 21.8344C15.0174 21.4347 15.0758 21.0079 15.0417 20.5833H23.75V19.0111C23.7512 17.9032 23.4782 16.8122 22.9556 15.8354C22.4329 14.8585 21.6767 14.0262 20.7543 13.4124ZM2.44942 18.2083C2.556 17.6375 2.77598 17.0938 3.09634 16.6094C3.41671 16.1251 3.83096 15.7099 4.31459 15.3884L4.83392 15.0417C5.53929 14.5723 6.1176 13.9358 6.51735 13.1888C6.91709 12.4418 7.12584 11.6076 7.12501 10.7603V8.10983C7.12501 6.60092 7.12501 5.04133 7.71084 3.99317C8.10351 3.29967 8.96167 2.375 11.875 2.375C14.7899 2.375 15.6481 3.29967 16.0392 3.99475C16.6266 5.04292 16.6266 6.60092 16.625 8.11142V10.7619C16.6244 11.6089 16.8333 12.4428 17.233 13.1895C17.6328 13.9362 18.211 14.5725 18.9161 15.0417L19.437 15.3884C19.9203 15.7101 20.3342 16.1254 20.6543 16.6097C20.9744 17.0941 21.1941 17.6376 21.3006 18.2083H2.44942Z" fill="white"/>
</svg>
