<svg width="47" height="47" viewBox="0 0 47 47" fill="none" xmlns="http://www.w3.org/2000/svg">
    <circle cx="23.5" cy="23.5" r="23.5" fill="#9FAAB9" />
    <path
        d="M13.5752 37.3935H33.4232V32.4315C33.4211 30.5898 32.6885 28.8241 31.3862 27.5217C30.0839 26.2194 28.3181 25.4868 26.4764 25.4847H20.522C18.6802 25.4868 16.9145 26.2194 15.6122 27.5217C14.3099 28.8241 13.5773 30.5898 13.5752 32.4315V37.3935Z"
        fill="white" />
    <path
        d="M16.5527 16.5531C16.5527 17.9271 16.9602 19.2702 17.7235 20.4125C18.4868 21.5549 19.5717 22.4453 20.8411 22.9711C22.1105 23.4969 23.5072 23.6345 24.8548 23.3664C26.2023 23.0984 27.4401 22.4368 28.4116 21.4652C29.3832 20.4937 30.0448 19.2559 30.3128 17.9084C30.5809 16.5608 30.4433 15.1641 29.9175 13.8947C29.3917 12.6253 28.5013 11.5404 27.359 10.7771C26.2166 10.0137 24.8735 9.60632 23.4995 9.60632C21.6571 9.60632 19.8902 10.3382 18.5874 11.641C17.2846 12.9438 16.5527 14.7107 16.5527 16.5531Z"
        fill="white" />
</svg>
    