<svg width="26" height="30" viewBox="0 0 26 30" fill="none" xmlns="http://www.w3.org/2000/svg">
<path d="M1.97107 12.0518C1.45995 12.5394 1.02574 13.2994 0.88454 14.0348C0.702399 14.9832 0.725956 15.852 1.10072 16.7266C1.47548 17.6012 2.38819 18.4244 3.24933 18.5248L1.97107 12.0518Z" fill="#F98507"/>
<path d="M2.8733 10.6598C2.74132 10.8029 0.99347 12.5304 1.72954 16.0236C1.72954 16.0236 2.28875 19.3185 5.10306 19.5611L11.2297 18.2767L9.6277 8.71913C9.6277 8.71913 9.3679 8.47657 8.7184 8.71913C8.06905 8.96178 3.2656 10.2343 2.8733 10.6598Z" fill="#FF8500"/>
<path d="M8.96143 9.03673C8.59061 9.26638 8.2759 9.59496 8.05637 10.001C7.63175 10.7864 7.16945 12.2097 7.57118 14.3633C8.17691 17.6109 9.76342 18.6657 11.2291 18.2766C13.0322 17.798 21.2491 20.8268 21.3292 20.7408C21.6776 20.3665 19.4689 1.57398 18.3004 1.86966C17.1889 2.15094 11.552 7.43256 8.96143 9.03673Z" fill="#F98507"/>
<path d="M21.0652 21.3946C23.5018 20.9404 24.819 16.14 24.0072 10.6727C23.1955 5.20532 20.5622 1.14137 18.1257 1.59557C15.6891 2.04977 14.3719 6.85013 15.1837 12.3175C15.9954 17.7848 18.6287 21.8488 21.0652 21.3946Z" fill="#F98507"/>
<path d="M22.8103 18.9077C22.8103 18.9077 22.8103 18.9076 22.8103 18.9081C22.3817 19.7637 21.8197 20.3116 21.1518 20.436C19.1097 20.8168 16.8556 17.0907 16.1168 12.1143C15.3784 7.13785 16.4347 2.79474 18.4765 2.41446C19.4535 2.23227 20.4795 2.99051 21.3644 4.37634C21.3652 4.37759 21.3659 4.37842 21.3663 4.37917C21.3667 4.38001 21.3667 4.38042 21.367 4.38084C22.3306 5.89074 23.1264 8.14381 23.5111 10.7362C24.0084 14.0852 23.6927 17.1471 22.8103 18.9077Z" fill="#FF8500"/>
<path d="M15.94 9.7723C15.94 9.7723 18.9035 9.42365 19.1434 9.62525C19.3833 9.82684 20.1585 13.3548 19.8159 13.59C19.4733 13.8252 16.6937 14.6999 16.6937 14.6999C16.6937 14.6999 15.7601 11.6203 15.94 9.7723Z" fill="#F98507"/>
<path d="M20.1557 11.4247C20.3719 12.5203 20.2108 13.4919 19.7958 13.5947C19.3808 13.6976 18.869 12.8928 18.6527 11.7971C18.4365 10.7015 18.5976 9.72992 19.0126 9.627C19.4276 9.52425 19.9394 10.329 20.1557 11.4247Z" fill="#F98507"/>
<path d="M21.0524 21.3448C19.9796 21.54 18.9899 20.8253 18.2701 20.0037C17.227 18.8131 16.5232 17.2619 16.0188 15.7078C15.3947 13.7846 15.0542 11.7329 14.9995 9.68823C14.9526 7.9356 15.1056 6.11835 15.6745 4.47214C16.0626 3.34935 16.7238 2.13746 17.8024 1.74144C17.9124 1.70105 18.0248 1.67058 18.1389 1.64885C18.1999 1.63719 18.174 1.53327 18.1134 1.54484C17.0061 1.75609 16.2487 2.81868 15.792 3.89501C15.1298 5.4552 14.9139 7.24039 14.897 8.95255C14.8765 11.0422 15.1691 13.1517 15.7432 15.1395C16.2213 16.7944 16.9063 18.4386 17.9356 19.7574C18.6364 20.6552 19.6073 21.5045 20.7258 21.4851C20.8439 21.483 20.9615 21.47 21.0781 21.4488C21.139 21.4377 21.1131 21.3337 21.0524 21.3448Z" fill="#FF8500"/>
<path d="M16.4572 4.88539C16.0257 5.87453 15.9067 7.02413 15.8294 8.10962C15.7678 8.97427 15.771 9.82661 15.8453 10.6906C15.93 11.677 16.0756 12.6596 16.2922 13.6206C16.4965 14.5271 16.7421 15.4809 17.2036 16.2702C17.247 16.3446 17.3401 16.2805 17.3083 16.2016C15.8772 12.6494 15.5942 8.65719 16.475 4.89371C16.4777 4.88222 16.4622 4.87389 16.4572 4.88539Z" fill="#FF8500"/>
<path d="M19.7824 13.5427C19.5954 13.5841 19.4256 13.4254 19.3083 13.2819C19.1173 13.0479 18.9834 12.7529 18.8809 12.4597C18.648 11.7938 18.514 10.9933 18.6543 10.2845C18.7 10.0536 18.7927 9.74281 19.0248 9.67903C19.0849 9.66246 19.0594 9.55845 18.9992 9.57502C18.7921 9.63198 18.6754 9.85364 18.6095 10.0646C18.5044 10.4008 18.4945 10.7757 18.5163 11.1276C18.5436 11.5685 18.628 12.0081 18.7655 12.4224C18.873 12.7464 19.0136 13.068 19.2178 13.3302C19.3642 13.5181 19.5719 13.6991 19.8079 13.6468C19.8687 13.6333 19.8429 13.5293 19.7824 13.5427Z" fill="#FF8500"/>
<path d="M19.7307 12.5243C19.6057 12.5415 19.5055 12.4218 19.4371 12.3192C19.3302 12.1586 19.2602 11.967 19.2103 11.7759C19.1523 11.5532 19.1215 11.321 19.124 11.0888C19.1256 10.9335 19.1294 10.7024 19.2289 10.5783C19.315 10.4709 19.4416 10.5939 19.4998 10.6748C19.5895 10.7992 19.6454 10.9551 19.691 11.1048C19.7571 11.3222 19.8059 11.5489 19.8457 11.7742C19.8807 11.9725 19.989 12.4701 19.7179 12.5263C19.6571 12.539 19.6829 12.6429 19.7435 12.6303C20.0213 12.5727 19.9984 12.1886 19.9694 11.9503C19.9378 11.6898 19.8809 11.4292 19.8129 11.1778C19.7621 10.9897 19.6991 10.7957 19.594 10.6362C19.5178 10.5206 19.3675 10.3714 19.2267 10.4457C19.0969 10.5143 19.0604 10.7198 19.0427 10.8611C19.0101 11.1199 19.0303 11.3892 19.0806 11.6435C19.1328 11.9073 19.22 12.1783 19.3681 12.3947C19.4528 12.5184 19.5793 12.6532 19.7307 12.6324C19.7914 12.6239 19.7922 12.5159 19.7307 12.5243Z" fill="#FF8500"/>
<path d="M10.5123 29.4801C9.53105 29.5173 9.43095 28.7345 8.54982 27.0197C7.66795 25.3049 7.05256 22.098 6.81922 21.632C6.61894 21.2316 6.29546 21.3412 5.91193 21.1418C5.85032 21.1099 5.78641 21.0693 5.72168 21.0176C5.25574 20.6448 5.10303 19.5606 5.10303 19.5606C7.71201 18.5384 8.36456 18.3076 9.15889 18.3076C9.67834 18.3076 10.1656 18.4265 10.2082 18.4822C10.2705 18.5638 10.1045 18.8645 9.93807 19.0992C9.77168 19.3348 10.7618 20.9244 10.6625 21.3904C10.5624 21.8564 10.4291 21.8935 10.4129 22.2664C10.396 22.6391 12.2259 26.7962 12.5756 26.9637C12.7612 27.0526 12.8482 27.1579 12.896 27.2908C12.9384 27.4064 12.9507 27.5436 12.9746 27.7094C13.0247 28.0631 11.4943 29.443 10.5123 29.4801Z" fill="#F98507"/>
<path d="M10.7988 20.9248C10.7834 21.0585 10.5947 21.2527 10.5947 21.2527C10.5947 21.2527 10.3482 21.4469 9.98778 21.3459C9.62811 21.244 9.22147 19.9685 9.22147 19.8641C9.22147 19.7597 9.17524 19.663 9.31079 19.506C9.44634 19.3489 9.82526 19.361 9.8422 19.3619C9.98622 19.3662 10.0994 19.493 10.2065 19.77C10.3151 20.0479 10.7479 20.7452 10.7942 20.8721C10.8003 20.8877 10.8011 20.9058 10.7988 20.9248Z" fill="#FF8500"/>
</svg>
